<svg width="90" height="90" viewBox="0 0 90 90" fill="none" xmlns="http://www.w3.org/2000/svg">
<g filter="url(#filter0_d_17_82)">
<circle cx="45" cy="45" r="25" fill="white"/>
</g>
<path d="M45.8973 55.3455C45.524 54.9721 45.1481 54.5962 44.7747 54.2228C43.8816 53.3297 42.9885 52.4366 42.0954 51.5435C41.0106 50.4587 39.9257 49.3739 38.8409 48.289C37.9074 47.3556 36.9765 46.4246 36.0431 45.4912C35.5889 45.0371 35.1424 44.5779 34.6807 44.1288C34.6731 44.1213 34.6681 44.1162 34.6605 44.1087C34.6605 44.704 34.6605 45.2969 34.6605 45.8923C35.0339 45.5189 35.4098 45.143 35.7832 44.7696C36.6763 43.8765 37.5694 42.9835 38.4625 42.0904C39.5473 41.0055 40.6321 39.9207 41.717 38.8359C42.6504 37.9024 43.5814 36.9715 44.5148 36.038C44.9689 35.5839 45.4281 35.1348 45.8772 34.6757C45.8847 34.6681 45.8898 34.6631 45.8973 34.6555C46.1269 34.4259 46.2657 34.0878 46.2657 33.7624C46.2657 33.4521 46.1294 33.0837 45.8973 32.8693C45.6577 32.6498 45.3423 32.4858 45.0043 32.501C44.6687 32.5161 44.3534 32.6296 44.1112 32.8693C43.7378 33.2427 43.3619 33.6186 42.9885 33.992C42.0954 34.8851 41.2023 35.7782 40.3092 36.6713C39.2244 37.7561 38.1396 38.8409 37.0547 39.9257C36.1213 40.8592 35.1903 41.7901 34.2569 42.7236C33.8028 43.1777 33.3436 43.6268 32.8945 44.0859C32.887 44.0935 32.8819 44.0986 32.8743 44.1061C32.3925 44.588 32.3925 45.4079 32.8743 45.8898C33.2502 46.2682 33.6262 46.6416 33.9995 47.0175C34.8926 47.9106 35.7857 48.8037 36.6788 49.6968C37.7636 50.7816 38.8485 51.8664 39.9333 52.9513C40.8668 53.8847 41.7977 54.8157 42.7312 55.7491C43.1853 56.2032 43.6343 56.6624 44.0935 57.1115C44.1011 57.119 44.1061 57.1241 44.1137 57.1317C44.3433 57.3612 44.6813 57.5 45.0068 57.5C45.3171 57.5 45.6854 57.3638 45.8999 57.1317C46.1194 56.892 46.2833 56.5766 46.2682 56.2386C46.2505 55.903 46.1395 55.5877 45.8973 55.3455Z" fill="#255965"/>
<path d="M33.7624 46.2632C33.9642 46.2632 34.1635 46.2632 34.3654 46.2632C34.9078 46.2632 35.4527 46.2632 35.9951 46.2632C36.8024 46.2632 37.6072 46.2632 38.4146 46.2632C39.3959 46.2632 40.3748 46.2632 41.3562 46.2632C42.4309 46.2632 43.5032 46.2632 44.5779 46.2632C45.6653 46.2632 46.7526 46.2632 47.8425 46.2632C48.8542 46.2632 49.8633 46.2632 50.875 46.2632C51.7327 46.2632 52.5905 46.2632 53.4458 46.2632C54.0588 46.2632 54.6744 46.2632 55.2874 46.2632C55.5776 46.2632 55.8702 46.2658 56.1604 46.2632C56.173 46.2632 56.1856 46.2632 56.1982 46.2632C56.5211 46.2632 56.8617 46.122 57.0913 45.8949C57.3108 45.6754 57.4748 45.3172 57.4596 45.0018C57.4445 44.6764 57.3385 44.3383 57.0913 44.1087C56.8441 43.8817 56.5413 43.7404 56.1982 43.7404C55.9964 43.7404 55.7971 43.7404 55.5952 43.7404C55.0528 43.7404 54.5079 43.7404 53.9655 43.7404C53.1582 43.7404 52.3534 43.7404 51.546 43.7404C50.5647 43.7404 49.5858 43.7404 48.6044 43.7404C47.5297 43.7404 46.4574 43.7404 45.3827 43.7404C44.2953 43.7404 43.208 43.7404 42.1181 43.7404C41.1064 43.7404 40.0973 43.7404 39.0856 43.7404C38.2279 43.7404 37.3701 43.7404 36.5148 43.7404C35.9018 43.7404 35.2862 43.7404 34.6732 43.7404C34.383 43.7404 34.0904 43.7379 33.8002 43.7404C33.7876 43.7404 33.775 43.7404 33.7624 43.7404C33.4395 43.7404 33.0989 43.8817 32.8693 44.1087C32.6498 44.3282 32.4858 44.6865 32.501 45.0018C32.5161 45.3273 32.6221 45.6653 32.8693 45.8949C33.1191 46.1194 33.4218 46.2632 33.7624 46.2632Z" fill="#255965"/>
<defs>
<filter id="filter0_d_17_82" x="0" y="0" width="90" height="90" filterUnits="userSpaceOnUse" color-interpolation-filters="sRGB">
<feFlood flood-opacity="0" result="BackgroundImageFix"/>
<feColorMatrix in="SourceAlpha" type="matrix" values="0 0 0 0 0 0 0 0 0 0 0 0 0 0 0 0 0 0 127 0" result="hardAlpha"/>
<feOffset/>
<feGaussianBlur stdDeviation="10"/>
<feComposite in2="hardAlpha" operator="out"/>
<feColorMatrix type="matrix" values="0 0 0 0 0 0 0 0 0 0 0 0 0 0 0 0 0 0 0.05 0"/>
<feBlend mode="normal" in2="BackgroundImageFix" result="effect1_dropShadow_17_82"/>
<feBlend mode="normal" in="SourceGraphic" in2="effect1_dropShadow_17_82" result="shape"/>
</filter>
</defs>
</svg>
