<svg width="29" height="30" viewBox="0 0 29 30" fill="none" xmlns="http://www.w3.org/2000/svg">
<path d="M9.96558 28.1731V23.5728C9.96556 22.4071 10.9135 21.46 12.0876 21.4527H16.3989C17.5783 21.4527 18.5344 22.4019 18.5344 23.5728V28.1598C18.5343 29.1709 19.356 29.9926 20.3744 30H23.3157C24.6894 30.0034 26.0081 29.4641 26.9807 28.501C27.9533 27.5379 28.5 26.2301 28.5 24.8662V11.7988C28.5 10.6971 28.0081 9.65205 27.1569 8.94524L17.1644 1.0114C15.4177 -0.376316 12.923 -0.331487 11.2281 1.11807L1.45052 8.94524C0.55911 9.63122 0.0263284 10.6793 0 11.7988V24.8529C0 27.6955 2.32107 30 5.18425 30H8.05842C8.54875 30.0035 9.02022 29.8126 9.36819 29.4696C9.71617 29.1266 9.91187 28.6599 9.91186 28.1731H9.96558Z" fill="#CCCCCC"/>
</svg>
