<svg width="248" height="108" viewBox="0 0 248 108" fill="none" xmlns="http://www.w3.org/2000/svg">
<path d="M34.1935 40.2093C34.1935 38.2154 33.9164 36.5723 33.3622 35.28C32.808 33.9508 32.0138 32.9723 30.9792 32.3447C29.9817 31.68 28.7809 31.3661 27.377 31.4031H24.7169V57.3785C24.7169 58.3754 24.6984 59.3354 24.6615 60.2585C24.6245 61.1816 24.569 61.8831 24.4952 62.3631C25.1232 62.2893 25.9177 62.2523 26.8782 62.2523C27.8758 62.2154 28.5592 62.197 28.9287 62.197V66.4616H12.7464V62.8062C13.5961 62.7692 14.2981 62.6585 14.8523 62.4739C15.4435 62.2893 15.8868 61.8647 16.1823 61.2C16.5149 60.5354 16.6811 59.4647 16.6811 57.9877V31.4585H14.1318C12.0259 31.4955 10.3634 32.2155 9.14413 33.6185C7.92492 35.0215 7.31531 37.2185 7.31531 40.2093H3.65765L3.93475 27.6923H37.5187L37.8512 40.2093H34.1935ZM51.4072 67.3477C48.7101 67.3477 46.3271 66.7569 44.2582 65.5754C42.1891 64.357 40.5819 62.6585 39.4367 60.48C38.2913 58.2647 37.7187 55.6616 37.7187 52.6708C37.7187 50.0861 38.2913 47.6678 39.4367 45.4154C40.5819 43.1631 42.1891 41.3539 44.2582 39.9877C46.3641 38.5847 48.8025 37.8831 51.5735 37.8831C53.1252 37.8831 54.6399 38.1047 56.1178 38.5477C57.5956 38.9538 58.9256 39.6738 60.108 40.7077C61.3272 41.7416 62.2878 43.1446 62.9898 44.917C63.7287 46.6893 64.0796 48.9047 64.0427 51.5631L45.8653 51.8954C45.8653 53.8893 46.1054 55.68 46.5858 57.2677C47.103 58.8555 47.9342 60.1108 49.0796 61.0339C50.2249 61.957 51.7582 62.4185 53.6794 62.4185C54.4183 62.4185 55.2496 62.2893 56.1732 62.0308C57.1338 61.7723 58.0944 61.3478 59.055 60.757C60.0526 60.1293 60.9761 59.2985 61.826 58.2647L64.3198 60.5908C62.9898 62.4739 61.5673 63.9139 60.0526 64.9108C58.5377 65.8708 57.023 66.517 55.5082 66.8493C54.0303 67.1816 52.6633 67.3477 51.4072 67.3477ZM46.1978 48.0185H56.3949C56.3579 46.4677 56.1363 45.2493 55.7299 44.3631C55.3604 43.44 54.8432 42.7754 54.1782 42.3693C53.5131 41.9632 52.7373 41.76 51.8506 41.76C50.2249 41.76 48.9502 42.3509 48.0267 43.5323C47.103 44.677 46.4934 46.1724 46.1978 48.0185ZM68.093 62.8616C69.1276 62.8616 69.8665 62.6585 70.3098 62.2523C70.7532 61.8462 71.0303 61.2738 71.1411 60.5354C71.2889 59.76 71.3628 58.8923 71.3628 57.9323V48.6277C71.3628 47.9631 71.3812 47.2247 71.4182 46.4123C71.4552 45.5632 71.5106 44.7324 71.5844 43.92C70.9933 43.957 70.2914 43.9938 69.4785 44.0308C68.7027 44.0308 68.1115 44.0492 67.7051 44.0862V39.877H69.9219C71.3628 39.877 72.6744 39.6924 73.8566 39.3231C75.0758 38.9538 75.8701 38.5847 76.2396 38.2154H78.9552C79.029 38.5847 79.0844 39.2861 79.1214 40.32C79.1584 41.317 79.1768 42.2031 79.1768 42.9785C80.1744 41.76 81.1165 40.7815 82.0032 40.0431C82.8899 39.3047 83.7582 38.7693 84.6079 38.437C85.4946 38.0677 86.3813 37.8831 87.268 37.8831C88.5611 37.8831 89.688 38.2524 90.6486 38.9908C91.6091 39.6924 92.0895 40.8555 92.0895 42.48C92.0895 43.0339 91.9602 43.6247 91.7015 44.2523C91.4429 44.8432 91.0365 45.3416 90.4823 45.7477C89.9281 46.1538 89.1707 46.357 88.2101 46.357C87.4713 46.357 86.7138 46.1354 85.938 45.6923C85.1621 45.2493 84.7187 44.4001 84.6079 43.1447C83.869 43.1447 83.13 43.4585 82.3911 44.0862C81.6523 44.677 80.9872 45.397 80.3961 46.2462C79.8419 47.0585 79.4539 47.8154 79.2323 48.517V57.5447C79.2323 58.0615 79.2138 58.8001 79.1768 59.76C79.1399 60.6832 79.0844 61.5693 79.0106 62.4185C79.6018 62.3447 80.2482 62.3077 80.9502 62.3077C81.6891 62.2708 82.2433 62.2523 82.6128 62.2523V66.4616H68.093V62.8616ZM107.422 67.3477C104.724 67.3477 102.341 66.7569 100.272 65.5754C98.2034 64.357 96.5963 62.6585 95.451 60.48C94.3057 58.2647 93.7331 55.6616 93.7331 52.6708C93.7331 50.0861 94.3057 47.6678 95.451 45.4154C96.5963 43.1631 98.2034 41.3539 100.272 39.9877C102.378 38.5847 104.817 37.8831 107.588 37.8831C109.14 37.8831 110.654 38.1047 112.132 38.5477C113.61 38.9538 114.94 39.6738 116.122 40.7077C117.342 41.7416 118.302 43.1446 119.004 44.917C119.743 46.6893 120.094 48.9047 120.057 51.5631L101.88 51.8954C101.88 53.8893 102.12 55.68 102.6 57.2677C103.117 58.8555 103.949 60.1108 105.094 61.0339C106.239 61.957 107.772 62.4185 109.694 62.4185C110.433 62.4185 111.264 62.2893 112.188 62.0308C113.148 61.7723 114.109 61.3478 115.069 60.757C116.067 60.1293 116.99 59.2985 117.84 58.2647L120.334 60.5908C119.004 62.4739 117.582 63.9139 116.067 64.9108C114.552 65.8708 113.037 66.517 111.523 66.8493C110.045 67.1816 108.678 67.3477 107.422 67.3477ZM102.212 48.0185H112.409C112.372 46.4677 112.151 45.2493 111.744 44.3631C111.375 43.44 110.858 42.7754 110.193 42.3693C109.527 41.9632 108.752 41.76 107.865 41.76C106.239 41.76 104.965 42.3509 104.041 43.5323C103.117 44.677 102.508 46.1724 102.212 48.0185ZM139.164 66.4616V62.8062C140.015 62.7692 140.716 62.6585 141.27 62.4739C141.862 62.2893 142.305 61.8647 142.6 61.2C142.933 60.5354 143.099 59.4647 143.099 57.9877V36.7754C143.099 35.7785 143.118 34.8185 143.154 33.8954C143.229 32.9723 143.284 32.2709 143.32 31.7908C142.73 31.8278 141.99 31.8646 141.104 31.9016C140.217 31.9016 139.571 31.92 139.164 31.957V27.6923H155.069V31.3477C154.257 31.3847 153.555 31.4955 152.963 31.68C152.373 31.8646 151.91 32.2893 151.578 32.9539C151.283 33.5815 151.135 34.6524 151.135 36.1662V57.3785C151.135 58.3754 151.117 59.317 151.079 60.2031C151.043 61.0893 150.988 61.7723 150.913 62.2523H158.339C160.52 62.2154 162.218 61.4585 163.438 59.9816C164.694 58.4678 165.322 56.197 165.322 53.1693H169.035L168.702 66.4616H139.164ZM172.112 62.8616C173.147 62.8616 173.885 62.6585 174.329 62.2523C174.772 61.8462 175.049 61.2738 175.16 60.5354C175.308 59.76 175.382 58.8923 175.382 57.9323V48.7385C175.382 48.0739 175.4 47.3169 175.437 46.4677C175.475 45.5816 175.53 44.7324 175.603 43.92C175.012 43.957 174.311 43.9938 173.497 44.0308C172.722 44.0308 172.13 44.0492 171.724 44.0862V39.877C173.424 39.877 174.865 39.7846 176.047 39.6C177.229 39.4155 178.153 39.1939 178.818 38.9354C179.52 38.6769 180 38.437 180.259 38.2154H183.251V57.5447C183.251 58.0615 183.233 58.8001 183.196 59.76C183.158 60.6832 183.103 61.5693 183.03 62.4185C183.621 62.3447 184.267 62.3077 184.969 62.3077C185.708 62.2708 186.262 62.2523 186.632 62.2523V66.4616H172.112V62.8616ZM179.039 33.84C177.783 33.84 176.749 33.397 175.936 32.5108C175.123 31.6247 174.717 30.5539 174.717 29.2985C174.717 28.0431 175.142 26.9723 175.991 26.0862C176.841 25.2 177.838 24.757 178.984 24.757C180.166 24.757 181.145 25.2 181.921 26.0862C182.734 26.9723 183.14 28.0431 183.14 29.2985C183.14 30.5539 182.77 31.6247 182.032 32.5108C181.294 33.397 180.296 33.84 179.039 33.84ZM195.739 81.4708C194.335 81.4708 193.134 81.0461 192.136 80.197C191.176 79.3846 190.695 78.2955 190.695 76.9293C190.695 75.9323 191.01 75.0462 191.638 74.2708C192.303 73.5324 193.153 73.1447 194.187 73.1077C195 73.0708 195.683 73.3293 196.237 73.8831C196.829 74.4739 197.124 75.2677 197.124 76.2647C197.124 76.3754 197.124 76.4862 197.124 76.597C197.124 76.7077 197.106 76.8369 197.069 76.9847C197.143 76.9847 197.235 76.9662 197.346 76.9293C197.678 76.8185 198.03 76.5046 198.399 75.9877C198.806 75.5077 199.194 74.8616 199.562 74.0493C199.97 73.2001 200.358 72.24 200.726 71.1693C201.134 70.1354 201.484 69.0462 201.779 67.9016L193.023 50.3447C191.989 48.277 191.305 46.7262 190.972 45.6923C190.677 44.6216 190.474 43.6801 190.363 42.8677L187.814 42.9785V38.7693H201.613V42.3139C200.247 42.4616 199.489 42.9785 199.341 43.8647C199.23 44.7508 199.396 45.6739 199.84 46.6339L205.271 59.04C205.641 58.0801 206.121 56.6031 206.711 54.6093C207.303 52.5785 208.005 50.3816 208.817 48.0185C208.966 47.5385 209.15 46.9846 209.372 46.357C209.631 45.6923 209.908 45.0461 210.203 44.4185C210.499 43.7539 210.812 43.2185 211.145 42.8123L207.986 42.9785V38.7693H217.851V42.3139C216.706 42.5724 215.745 43.2738 214.969 44.4185C214.23 45.5632 213.565 46.9662 212.974 48.6277L206.046 68.4C205.013 71.3908 204.033 73.8461 203.109 75.7662C202.187 77.7231 201.152 79.1631 200.006 80.0862C198.861 81.0093 197.439 81.4708 195.739 81.4708ZM232.98 67.3477C230.283 67.3477 227.9 66.7569 225.831 65.5754C223.762 64.357 222.155 62.6585 221.01 60.48C219.864 58.2647 219.292 55.6616 219.292 52.6708C219.292 50.0861 219.864 47.6678 221.01 45.4154C222.155 43.1631 223.762 41.3539 225.831 39.9877C227.937 38.5847 230.375 37.8831 233.146 37.8831C234.698 37.8831 236.212 38.1047 237.691 38.5477C239.169 38.9538 240.499 39.6738 241.681 40.7077C242.9 41.7416 243.86 43.1446 244.563 44.917C245.301 46.6893 245.653 48.9047 245.616 51.5631L227.438 51.8954C227.438 53.8893 227.678 55.68 228.159 57.2677C228.675 58.8555 229.507 60.1108 230.652 61.0339C231.798 61.957 233.331 62.4185 235.252 62.4185C235.991 62.4185 236.822 62.2893 237.746 62.0308C238.706 61.7723 239.668 61.3478 240.628 60.757C241.625 60.1293 242.55 59.2985 243.399 58.2647L245.893 60.5908C244.563 62.4739 243.14 63.9139 241.625 64.9108C240.111 65.8708 238.595 66.517 237.081 66.8493C235.603 67.1816 234.237 67.3477 232.98 67.3477ZM227.771 48.0185H237.968C237.93 46.4677 237.709 45.2493 237.303 44.3631C236.933 43.44 236.416 42.7754 235.751 42.3693C235.086 41.9632 234.31 41.76 233.423 41.76C231.798 41.76 230.524 42.3509 229.6 43.5323C228.675 44.677 228.066 46.1724 227.771 48.0185Z" fill="#032A33"/>
<path d="M54.754 82.3847C54.754 82.0893 54.754 81.8124 54.754 81.5539C54.7724 81.277 54.8001 80.9539 54.8371 80.5847C54.5046 80.6031 54.1721 80.6216 53.8396 80.6401C53.5255 80.6585 53.2022 80.677 52.8697 80.6954V79.5324C53.6826 79.5324 54.3106 79.4954 54.754 79.4216C55.2157 79.3478 55.5575 79.2554 55.7792 79.1447C56.0193 79.0339 56.2041 78.9139 56.3334 78.7847H57.137V87.037C57.6542 86.5201 58.2638 86.1231 58.9658 85.8462C59.6863 85.5509 60.4714 85.4031 61.3211 85.4031C62.5033 85.4031 63.5656 85.6893 64.5077 86.2616C65.4683 86.8338 66.2257 87.6462 66.7799 88.6985C67.3341 89.7508 67.6112 90.997 67.6112 92.437C67.6112 94.0062 67.2694 95.3724 66.5859 96.5354C65.9025 97.6801 65.0158 98.5662 63.9258 99.1939C62.8359 99.8215 61.6629 100.135 60.4067 100.135C59.7787 100.135 59.0859 100.015 58.3285 99.7754C57.5896 99.5539 56.9246 99.1108 56.3334 98.4462L55.6684 99.6924H54.6985L54.754 82.3847ZM57.137 95.3447C57.137 96.3232 57.294 97.08 57.608 97.6154C57.9221 98.1323 58.3285 98.4923 58.8273 98.6954C59.326 98.8986 59.8525 99.0001 60.4067 99.0001C61.2934 99.0001 62.06 98.7508 62.7066 98.2524C63.3532 97.7539 63.852 97.0709 64.2029 96.2031C64.5724 95.317 64.7571 94.2924 64.7571 93.1293C64.7571 91.8739 64.6001 90.7754 64.286 89.8339C63.9719 88.8739 63.5009 88.1262 62.8729 87.5908C62.2448 87.037 61.4504 86.7601 60.4898 86.7601C59.8802 86.7601 59.2706 86.9078 58.661 87.2031C58.0698 87.4801 57.5619 87.8585 57.137 88.3385V95.3447ZM104.576 100.135C103.283 100.135 102.11 99.8401 101.057 99.2493C100.004 98.6401 99.164 97.8093 98.5358 96.757C97.9262 95.6862 97.6214 94.4678 97.6214 93.1016C97.6214 91.6432 97.9262 90.3324 98.5358 89.1693C99.1454 88.0062 99.9767 87.0924 101.03 86.4277C102.083 85.7447 103.265 85.4031 104.576 85.4031C105.87 85.4031 107.043 85.717 108.096 86.3447C109.149 86.9539 109.989 87.7847 110.617 88.837C111.245 89.8893 111.559 91.0893 111.559 92.437C111.559 93.8586 111.245 95.1601 110.617 96.3416C110.008 97.5047 109.176 98.4278 108.123 99.1108C107.07 99.7939 105.888 100.135 104.576 100.135ZM104.798 99.0277C105.777 99.0277 106.553 98.7508 107.126 98.197C107.699 97.6431 108.105 96.9231 108.345 96.037C108.604 95.1508 108.733 94.2186 108.733 93.24C108.733 92.4093 108.65 91.5969 108.484 90.8031C108.336 89.9908 108.096 89.2616 107.763 88.6154C107.431 87.9508 106.996 87.4247 106.461 87.037C105.944 86.6493 105.315 86.4554 104.576 86.4554C103.616 86.4554 102.831 86.7324 102.221 87.2862C101.612 87.8401 101.159 88.56 100.863 89.4462C100.586 90.3324 100.448 91.2832 100.448 92.2985C100.448 93.4432 100.605 94.5323 100.919 95.5662C101.233 96.5815 101.713 97.4123 102.36 98.0585C103.006 98.7047 103.819 99.0277 104.798 99.0277ZM148.495 100.135C147.203 100.135 146.029 99.8401 144.976 99.2493C143.923 98.6401 143.082 97.8093 142.455 96.757C141.845 95.6862 141.54 94.4678 141.54 93.1016C141.54 91.6432 141.845 90.3324 142.455 89.1693C143.064 88.0062 143.895 87.0924 144.948 86.4277C146.001 85.7447 147.183 85.4031 148.495 85.4031C149.788 85.4031 150.961 85.717 152.014 86.3447C153.067 86.9539 153.908 87.7847 154.536 88.837C155.163 89.8893 155.478 91.0893 155.478 92.437C155.478 93.8586 155.163 95.1601 154.536 96.3416C153.926 97.5047 153.095 98.4278 152.042 99.1108C150.989 99.7939 149.807 100.135 148.495 100.135ZM148.717 99.0277C149.696 99.0277 150.472 98.7508 151.044 98.197C151.617 97.6431 152.024 96.9231 152.264 96.037C152.523 95.1508 152.652 94.2186 152.652 93.24C152.652 92.4093 152.568 91.5969 152.402 90.8031C152.254 89.9908 152.014 89.2616 151.682 88.6154C151.349 87.9508 150.916 87.4247 150.379 87.037C149.863 86.6493 149.234 86.4554 148.495 86.4554C147.535 86.4554 146.75 86.7324 146.14 87.2862C145.53 87.8401 145.077 88.56 144.782 89.4462C144.505 90.3324 144.366 91.2832 144.366 92.2985C144.366 93.4432 144.523 94.5323 144.838 95.5662C145.152 96.5815 145.631 97.4123 146.278 98.0585C146.925 98.7047 147.737 99.0277 148.717 99.0277ZM185.292 99.6924V98.8616C185.864 98.8616 186.252 98.7231 186.456 98.4462C186.677 98.1509 186.806 97.7539 186.844 97.2554C186.881 96.7386 186.899 96.1477 186.899 95.4831L186.927 82.3847C186.927 82.0893 186.927 81.8124 186.927 81.5539C186.945 81.277 186.973 80.9539 187.01 80.5847C186.677 80.6031 186.345 80.6216 186.012 80.6401C185.698 80.6585 185.375 80.677 185.043 80.6954V79.5324C185.856 79.5324 186.484 79.4954 186.927 79.4216C187.37 79.3478 187.703 79.2554 187.924 79.1447C188.164 79.0339 188.35 78.9139 188.479 78.7847H189.282V91.8831H190.391L193.771 88.3385C194.086 88.0246 194.371 87.7477 194.63 87.5077C194.889 87.2492 195.147 87.037 195.406 86.8708L193.522 86.9539V85.8462H198.565V86.677C197.937 86.7324 197.346 86.9355 196.791 87.2862C196.255 87.6185 195.757 87.9969 195.295 88.4216C194.852 88.8463 194.464 89.2339 194.131 89.5847L191.97 91.8554C192.34 92.0216 192.653 92.2339 192.912 92.4924C193.171 92.7509 193.429 93.0369 193.688 93.3508L195.655 95.8708C195.748 95.9816 195.905 96.1938 196.126 96.5077C196.366 96.8216 196.643 97.1631 196.958 97.5324C197.29 97.9016 197.632 98.2154 197.983 98.4739C198.353 98.7324 198.694 98.8616 199.008 98.8616V99.6924H196.487C195.97 99.6924 195.479 99.4247 195.018 98.8893C194.557 98.3538 194.066 97.7539 193.549 97.0893C193.069 96.4247 192.635 95.8247 192.247 95.2893C191.877 94.7354 191.536 94.2554 191.222 93.8493C190.927 93.4432 190.658 93.1293 190.418 92.9077L189.282 92.9631V96.757C189.282 97.1262 189.272 97.4586 189.254 97.7539C189.254 98.0308 189.227 98.3262 189.171 98.64C189.466 98.6216 189.763 98.6124 190.058 98.6124C190.353 98.5939 190.65 98.5754 190.945 98.557V99.6924H185.292Z" fill="#255965"/>
<path d="M6.62257 28.1354C6.06838 28.1354 5.53266 28.0708 5.01542 27.9416C4.51665 27.8124 4.05483 27.5723 3.62994 27.2216C3.22354 26.8523 2.90026 26.317 2.66011 25.6154C2.41997 24.9139 2.29989 23.9816 2.29989 22.8185L2.35531 16.1447H0.471062V13.8462C1.04372 13.8277 1.59791 13.6339 2.13363 13.2647C2.66935 12.8954 3.12193 12.4154 3.4914 11.8247C3.87933 11.2339 4.13796 10.6154 4.26726 9.96928H6.31777L6.29006 13.8462H9.80916V15.9785L6.29006 16.0616L6.26235 22.8739C6.26235 23.2986 6.2993 23.7231 6.37318 24.1477C6.46555 24.5539 6.63181 24.8954 6.87196 25.1724C7.1121 25.4309 7.4631 25.5601 7.92492 25.5601C8.18354 25.5601 8.53453 25.4677 8.97788 25.2831C9.4397 25.0986 9.92924 24.6369 10.4465 23.8985L11.7765 25.1447C11.2778 25.8831 10.7605 26.4555 10.2248 26.8616C9.68908 27.2677 9.17184 27.5632 8.67307 27.7477C8.19277 27.9323 7.7679 28.0431 7.39844 28.0801C7.02897 28.117 6.77036 28.1354 6.62257 28.1354ZM20.8399 25.8924C21.3572 25.8924 21.7266 25.7909 21.9483 25.5877C22.1885 25.3846 22.3362 25.0986 22.3916 24.7293C22.4656 24.3416 22.5025 23.9078 22.5025 23.4277L22.4748 19.4954C22.4748 18.2954 22.2901 17.4092 21.9206 16.837C21.5696 16.2462 21.0062 15.9508 20.2303 15.9508C19.7685 15.9508 19.3067 16.0523 18.8448 16.2554C18.4015 16.4586 18.0228 16.6985 17.7087 16.9754V23.2339C17.7087 23.4924 17.6996 23.8615 17.681 24.3416C17.6626 24.8031 17.6349 25.2462 17.5979 25.6708C17.912 25.6339 18.2445 25.6154 18.5954 25.6154C18.9465 25.597 19.2143 25.5877 19.399 25.5877V27.6924H12.1391V25.8924C12.6564 25.8924 13.0258 25.7909 13.2475 25.5877C13.4877 25.3846 13.6355 25.0986 13.6909 24.7293C13.7463 24.3416 13.774 23.9078 13.774 23.4277V12.0462C13.774 11.7139 13.7832 11.3354 13.8017 10.9108C13.8202 10.4677 13.8479 10.0431 13.8848 9.63698C13.5893 9.65543 13.2383 9.6739 12.8319 9.69236C12.4439 9.69236 12.1484 9.7016 11.9452 9.72005V7.61544C12.8134 7.61544 13.5339 7.56929 14.1065 7.47698C14.6977 7.38466 15.1595 7.27389 15.492 7.14467C15.843 7.01544 16.0831 6.89544 16.2124 6.78467H17.7087V14.9539C18.0782 14.6586 18.5032 14.4001 18.9834 14.1785C19.4637 13.9386 19.9532 13.7539 20.452 13.6247C20.9507 13.477 21.3849 13.4031 21.7543 13.4031C23.4539 13.4031 24.6547 13.8923 25.3565 14.8708C26.0586 15.8308 26.4188 17.3815 26.4372 19.5231V23.2339C26.4372 23.4924 26.4281 23.8615 26.4095 24.3416C26.3911 24.8031 26.3634 25.2462 26.3264 25.6708C26.622 25.6339 26.9453 25.6154 27.2962 25.6154C27.6473 25.597 27.9244 25.5877 28.1275 25.5877V27.6924H20.8399V25.8924ZM36.3599 28.1354C35.0114 28.1354 33.8199 27.8401 32.7853 27.2493C31.7508 26.6401 30.9472 25.7909 30.3746 24.7016C29.802 23.5939 29.5156 22.2924 29.5156 20.797C29.5156 19.5047 29.802 18.2954 30.3746 17.1693C30.9472 16.0432 31.7508 15.1385 32.7853 14.4554C33.8383 13.7539 35.0575 13.4031 36.443 13.4031C37.2188 13.4031 37.9763 13.5139 38.7152 13.7354C39.454 13.9386 40.1191 14.2986 40.7102 14.8154C41.3199 15.3323 41.8002 16.0339 42.1511 16.9201C42.5206 17.8062 42.696 18.9139 42.6776 20.2431L33.5889 20.4093C33.5889 21.4062 33.709 22.3016 33.9491 23.0954C34.2078 23.8892 34.6234 24.517 35.1961 24.9785C35.7687 25.44 36.5354 25.6708 37.4959 25.6708C37.8654 25.6708 38.2811 25.6062 38.7429 25.477C39.2232 25.3478 39.7034 25.1354 40.1838 24.8401C40.6825 24.5262 41.1443 24.1108 41.5692 23.5939L42.8162 24.757C42.1511 25.6985 41.44 26.4185 40.6825 26.917C39.9251 27.397 39.1678 27.7201 38.4104 27.8862C37.6715 28.0524 36.9879 28.1354 36.3599 28.1354ZM33.7552 18.4708H38.8537C38.8353 17.6954 38.7244 17.0862 38.5212 16.6431C38.3365 16.1816 38.0778 15.8493 37.7453 15.6462C37.4128 15.4431 37.0249 15.3416 36.5815 15.3416C35.7687 15.3416 35.1313 15.6369 34.6696 16.2277C34.2078 16.8 33.903 17.5477 33.7552 18.4708Z" fill="#032A33"/>
</svg>
