<svg width="31" height="30" viewBox="0 0 31 30" fill="none" xmlns="http://www.w3.org/2000/svg">
<path d="M30.1333 27.9098L24.9772 22.8687L24.8563 22.685C24.6316 22.4612 24.3244 22.3352 24.0037 22.3352C23.683 22.3352 23.3758 22.4612 23.1511 22.685C18.7692 26.705 12.0172 26.9235 7.37295 23.1956C2.72873 19.4676 1.63344 12.9501 4.81347 7.96525C7.99349 2.98046 14.462 1.07527 19.9292 3.5132C25.3964 5.95114 28.1657 11.9757 26.4005 17.5914C26.2733 17.9971 26.3773 18.4383 26.673 18.7487C26.9688 19.0592 27.4116 19.1918 27.8345 19.0966C28.2574 19.0014 28.5963 18.6929 28.7234 18.2872C30.8335 11.623 27.6466 4.45133 21.2241 1.41159C14.8017 -1.62816 7.0712 0.376236 3.03352 6.12813C-1.00416 11.88 -0.137292 19.6532 5.07334 24.4193C10.284 29.1853 18.2746 29.5138 23.8761 25.1923L28.4414 29.6558C28.9129 30.1147 29.6752 30.1147 30.1467 29.6558C30.6177 29.1903 30.6177 28.4409 30.1467 27.9754L30.1333 27.9098Z" fill="#CCCCCC"/>
</svg>
