<svg width="29" height="30" viewBox="0 0 29 30" fill="none" xmlns="http://www.w3.org/2000/svg">
<path d="M15.3209 0.000538824C16.1459 -0.0144609 16.9274 0.284034 17.5109 0.855523C18.0974 1.40901 18.4109 2.1755 18.4109 2.98548C18.4109 4.63546 19.7758 5.97193 21.4723 5.97193C21.9958 5.97193 22.5208 5.82043 22.9873 5.56544C24.4408 4.78395 26.2557 5.28044 27.0807 6.67542L28.1022 8.43039C28.3572 8.88038 28.5057 9.39037 28.5057 9.91536C28.5057 10.9803 27.9222 11.9718 26.9772 12.4953C26.5107 12.7503 26.1207 13.1403 25.8522 13.5918C25.0557 15.0003 25.5522 16.7837 26.9772 17.5967C28.4157 18.4202 28.9107 20.2217 28.1022 21.6451L27.0807 23.3416C26.5407 24.2701 25.5357 24.8416 24.4558 24.8416C23.9158 24.8416 23.3758 24.7051 22.9273 24.4351C22.4458 24.1801 21.9223 24.0301 21.3958 24.0301C20.5858 24.0301 19.8058 24.3466 19.2373 24.9151C18.6509 25.4716 18.3359 26.2351 18.3359 27.0301C18.3359 28.665 16.9724 30 15.2759 30H13.2225C12.411 30 11.646 29.67 11.091 29.115C10.521 28.545 10.2225 27.795 10.2225 27.0151C10.2225 25.3651 8.87103 24.0301 7.17756 24.0301C6.62107 24.0301 6.08108 24.1801 5.61609 24.4666C4.9111 24.8551 4.07112 24.9601 3.29113 24.7651C2.51115 24.5551 1.83616 24.0451 1.43117 23.3701L0.472685 21.6751C0.0211928 20.9717 -0.113805 20.1302 0.0976915 19.3352C0.306188 18.5402 0.847678 17.8652 1.58116 17.4602C2.04766 17.2052 2.43615 16.8302 2.70614 16.3652C3.48763 14.9553 2.99114 13.1853 1.58116 12.3603C0.15619 11.5503 -0.338801 9.76536 0.472685 8.35539L1.43117 6.67542C1.83616 5.97193 2.51115 5.46044 3.30613 5.25044C4.10262 5.04045 4.9411 5.15895 5.64609 5.56544C6.12608 5.82043 6.65107 5.95543 7.17756 5.95543C7.98755 5.95543 8.76604 5.64044 9.33603 5.08545C9.90602 4.53046 10.2225 3.76547 10.2225 2.98548C10.2225 1.33551 11.586 0.000538824 13.281 0.000538824H15.3209ZM15.9224 11.2218C14.3474 10.5753 12.531 10.9203 11.316 12.1053C10.116 13.2753 9.74102 15.0603 10.401 16.5917C11.0475 18.1352 12.576 19.1402 14.2859 19.1402H14.3024C15.4274 19.1552 16.4774 18.7217 17.2709 17.9402C18.0659 17.1752 18.5159 16.1252 18.5159 15.0303C18.5309 13.3653 17.4959 11.8503 15.9224 11.2218Z" fill="#CCCCCC"/>
</svg>
